<svg xmlns="http://www.w3.org/2000/svg" viewBox="0 0 316.13 157.16"><defs><style>.cls-1{fill:#987a3e;}</style></defs><title>Asset 2</title><g id="Layer_2" data-name="Layer 2"><g id="Layer_1-2" data-name="Layer 1"><path class="cls-1" d="M180.66,8.89a47,47,0,0,1,47,47h8.89A55.86,55.86,0,0,0,127,40.31,55.86,55.86,0,0,0,21.93,34V4.44H8.77L0,13.16H8.71L13,8.86V107.3h8.89V77.71A55.86,55.86,0,0,0,127,71.44a56,56,0,0,0,53.65,40.31v-8.89a47,47,0,1,1,0-94Zm-107.3,94a47,47,0,1,1,47-47A47,47,0,0,1,73.36,102.86Z"/><path class="cls-1" d="M304.28,107.11a2.36,2.36,0,0,0-2.39,2.42,2.32,2.32,0,0,0,2.39,2.44,2.43,2.43,0,0,0,0-4.86Zm0,4.41a1.85,1.85,0,0,1-1.86-2,1.83,1.83,0,0,1,1.86-2,2,2,0,0,1,0,4Z"/><path class="cls-1" d="M305.24,110.05a.54.54,0,0,0-.42-.52v0a.63.63,0,0,0,.46-.64c0-.5-.38-.71-.83-.71H303.4v2.63h.51v-1.05h.42a.39.39,0,0,1,.43.39l0,.41a1,1,0,0,0,.06.25h.53v0a.9.9,0,0,1-.12-.41Zm-.9-.66h-.43v-.86h.41c.25,0,.45.11.45.42A.4.4,0,0,1,304.34,109.39Z"/><path class="cls-1" d="M212.71,126l-.05-.06c4-1.85,5.49-4.73,5.49-8.21,0-6.69-4.46-10-12-10H189.55V146.5h17.56c6.42,0,12.23-3.86,12.23-11.14C219.34,131,217.17,127.2,212.71,126Zm-15.93-12.13H205c3.64,0,6.09,1.42,6.09,4.79,0,3.15-2.12,5-5.76,5h-8.54Zm9.08,26.48h-9.08v-10.6h9.13c4,0,6.26,1.63,6.26,5.16S209.72,140.36,205.86,140.36Z"/><path class="cls-1" d="M218,72.93a11.84,11.84,0,0,0-4.24-9.46,13.53,13.53,0,0,0-8.92-2.72H189.55V99.52h7.23V85H203l9.08,14.52H220l-9.63-15.33A11.62,11.62,0,0,0,218,72.93Zm-14,6h-7.23V66.84h7.12c4,0,7.07,1.47,7.07,6C211,76.9,208.2,78.91,204,78.91Z"/><path class="cls-1" d="M292.08,121.55h-.17a9,9,0,0,0-7.07-3.43c-6.19,0-11.47,3.75-11.47,11.31v6.74c0,7.13,4.89,11,11,11,2.51,0,6.26-1.58,7.83-3.76h.06v3.1h6.47V107.74h-6.63Zm0,14.41c0,4-3.16,5.49-5.93,5.49-3.43,0-6-2-6-5.33v-6.91c0-4,3.05-5.49,5.82-5.49,3.43,0,6.15,2,6.15,5.39Z"/><path class="cls-1" d="M259.83,137.91h-.11l-6.46-19.24H246l10.28,27.18-1.2,3.32a3.31,3.31,0,0,1-3.2,2.33,25.71,25.71,0,0,1-2.78-.21v5.6a28.77,28.77,0,0,0,2.94.27c4.29,0,7.5-1.63,9.08-6l11.8-32.45h-6.8Z"/><path class="cls-1" d="M306.4,71.14a9.38,9.38,0,0,0-7.89,4h-.1V71.68h-6.47V99.52h6.63V83.91c0-4.73,2.12-7,5.76-7,3.37,0,5.17,2.22,5.17,6.41V99.52h6.63V81.68C316.13,75.05,312.65,71.14,306.4,71.14Z"/><rect class="cls-1" x="279.2" y="71.68" width="6.63" height="27.84"/><rect class="cls-1" x="279.2" y="60.75" width="6.63" height="5.93"/><path class="cls-1" d="M255.44,96.75h.17a9,9,0,0,0,7.07,3.42c6.19,0,11.74-3.75,11.74-11.31V82.12c0-7.12-4.89-11-11-11a9.53,9.53,0,0,0-7.67,3.75h-.05V60.75h-6.64V99.52h6.36Zm.28-14a5.75,5.75,0,0,1,5.92-5.92c3.43,0,6,2,6,5.32v6.91c0,4-3.05,5.49-5.82,5.49-3.43,0-6.14-2-6.14-5.38Z"/><path class="cls-1" d="M233.91,141.56c-3.42,0-6-2-6-5.39v0h-6.74v.11c0,7.12,6,10.93,12.77,10.93,6,0,12.19-3.9,12.55-11h-6.73C239.7,140.1,236.67,141.56,233.91,141.56Z"/><path class="cls-1" d="M221.16,82.22h6.73c.06-3.93,3.06-5.37,5.81-5.37,3.42,0,6,2,6,5.32v0h6.73c-.3-6.8-6.2-11-12.76-11C227.74,71.19,221.52,75.08,221.16,82.22Z"/><path class="cls-1" d="M232.77,129.31H233v-.65h-.17a1.9,1.9,0,0,0-1.88,2.16,2.15,2.15,0,0,0,2.34,2.27h1.32a2.09,2.09,0,0,0,2.28-2.28,1.89,1.89,0,0,0-1.88-2.15h-.15v.65h.2a1.31,1.31,0,0,1,1.26,1.49,1.48,1.48,0,0,1-1.7,1.59h-1.37a1.54,1.54,0,0,1-1.74-1.58A1.32,1.32,0,0,1,232.77,129.31Z"/><path class="cls-1" d="M235.91,123.23l-.32.5a1.87,1.87,0,0,1,.73,1.51,1.56,1.56,0,0,1-1.64,1.73H234v-3.86h-.83A2.05,2.05,0,0,0,231,125.3a2.24,2.24,0,0,0,2.42,2.36h1.23a2.13,2.13,0,0,0,2.29-2.37A2.38,2.38,0,0,0,235.91,123.23ZM233.53,127h-.31a1.6,1.6,0,0,1-1.71-1.61,1.5,1.5,0,0,1,1.64-1.59h.38Z"/><path class="cls-1" d="M232.16,121.06v0h-1.09v.64h5.67v-.66h-3.39a1.77,1.77,0,0,1-1.82-1.75c0-.78.44-1.3,1.5-1.3h3.71v-.67h-4a1.65,1.65,0,0,0-1.78,1.76A2.14,2.14,0,0,0,232.16,121.06Z"/><path class="cls-1" d="M231.09,112.89v1.69H229.3v.67h1.79v1h.54v-1h4c1,0,1.23-.66,1.23-1.37a3.78,3.78,0,0,0-.15-1.06h-.58a3.59,3.59,0,0,1,.13.87c0,.58-.19.89-.81.89h-3.8v-1.69Z"/><path class="cls-1" d="M235.91,107.52l-.32.51a1.86,1.86,0,0,1,.73,1.51,1.56,1.56,0,0,1-1.64,1.73H234v-3.86h-.83a2,2,0,0,0-2.23,2.18,2.24,2.24,0,0,0,2.42,2.37h1.23a2.13,2.13,0,0,0,2.29-2.38A2.39,2.39,0,0,0,235.91,107.52Zm-2.38,3.75h-.31a1.6,1.6,0,0,1-1.71-1.62,1.49,1.49,0,0,1,1.64-1.58h.38Z"/><path class="cls-1" d="M232.16,105.35v0h-1.09V106h5.67v-.66h-3.39a1.76,1.76,0,0,1-1.82-1.75c0-.77.44-1.3,1.5-1.3h3.71v-.67h-4a1.65,1.65,0,0,0-1.78,1.77A2.13,2.13,0,0,0,232.16,105.35Z"/><path class="cls-1" d="M232.48,100h.18v-.61h-.19c-.74,0-1-.75-1-1.46s.31-1.44,1.2-1.44h.87v1.66c0,.93.43,2.1,1.7,2.1a1.65,1.65,0,0,0,1.61-1.86,1.93,1.93,0,0,0-1-1.92v0c.17,0,.71,0,.9,0v-.66c-.25,0-1.09.08-1.42.08h-2.76c-1.22,0-1.62,1-1.62,2.08S231.36,100,232.48,100Zm1.58-3.51h.63a1.54,1.54,0,0,1,1.65,1.72c0,.71-.36,1.37-1.13,1.37-1,0-1.15-.79-1.15-1.57Z"/><path class="cls-1" d="M231,91.12a2.38,2.38,0,0,0,0,.39,2.2,2.2,0,0,0,1.28,2.11v0h-1.21v.65h5.67v-.67h-3.15a1.88,1.88,0,0,1-2-2,3.33,3.33,0,0,1,0-.52Z"/><path class="cls-1" d="M239,90.48a3,3,0,0,0,.08-.69,1.66,1.66,0,0,0-1.28-1.72l-6.72-2.48v.67l4.7,1.68h0l-4.7,1.76v.73l5.54-2.15,1.11.42a1.09,1.09,0,0,1,.78,1.05,2.9,2.9,0,0,1-.09.72Z"/></g></g></svg>